<svg xmlns="http://www.w3.org/2000/svg" xmlns:xlink="http://www.w3.org/1999/xlink" x="0px" y="0px" viewBox="0 0 58 60" style="enable-background:new 0 0 58 60;" xml:space="preserve">

<g>
	<defs>
		<rect id="icon-login" y="0" width="58" height="60"/>
	</defs>
	<clipPath id="icon-login2">
		<use xlink:href="#icon-login" style="overflow:visible;"/>
	</clipPath>
	<path class="icon-login" d="M28,60C18,60,8.7,55,3.1,46.7c-0.3-0.5-0.4-1.1-0.3-1.6c0.1-0.6,0.5-1,1-1.3c0.3-0.2,0.6-0.2,0.9-0.2&#10;&#9;&#9;c0.7,0,1.3,0.3,1.6,0.9C11.2,51.7,19.3,56,28,56c11.7,0,22-7.9,25.1-19.2c3.1-11.1-1.7-23-11.5-29C37.5,5.3,32.8,4,28,4&#10;&#9;&#9;C19.3,4,11.2,8.3,6.4,15.6c-0.4,0.5-1,0.9-1.6,0.9c-0.3,0-0.6-0.1-0.9-0.2c-0.5-0.3-0.9-0.7-1-1.3c-0.1-0.6,0-1.1,0.3-1.6&#10;&#9;&#9;c2.8-4.1,6.6-7.6,11-9.9C18.4,1.2,23.2,0,28,0c11.9,0,22.7,7.1,27.5,18c6,13.6,0.9,29.8-11.8,37.6C39,58.5,33.5,60,28,60"/>
	<path class="icon-login" d="M24.2,41l9-9H2c-1.1,0-2-0.9-2-2c0-1.1,0.9-2,2-2h31.2l-9-9l2.8-2.8l12.4,12.4c0.8,0.8,0.8,2,0,2.8L27,43.8&#10;&#9;&#9;L24.2,41z"/>
</g>
</svg>